<svg xmlns="http://www.w3.org/2000/svg" width="100" height="100"><g fill="#fff"><path d="M49.96 28.69a16.8 16.8 0 00-14.57 25.2c4.13 7.44 5.22 11.61 5.9 15.65.56 3.39 1.34 4.18 3.9 4.18h9.53c2.57 0 3.35-.79 3.91-4.18.68-4.04 1.77-8.22 5.9-15.65a16.8 16.8 0 00-14.57-25.2zM55.97 74.93H43.96c-.5 0-.9.4-.9.9v.6c0 .5.4.9.9.9h12.01c.5 0 .9-.4.9-.9v-.6c0-.5-.4-.9-.9-.9zM55.97 78.54H43.96c-.5 0-.9.4-.9.9v.6c0 .5.4.9.9.9h12.01c.5 0 .9-.4.9-.9v-.6c0-.5-.4-.9-.9-.9zM55.97 82.14H43.96c-.5 0-.9.4-.9.9v.6c0 .5.4.9.9.9h12.01c.5 0 .9-.4.9-.9v-.6c0-.5-.4-.9-.9-.9zM45.46 85.74h9.01c0 1.8-2.4 3-4.51 3-2.1 0-4.5-1.2-4.5-3zM69.26 16.85c1.54-2.68-2.6-5.09-4.15-2.41l-6.66 11.54 4.16 2.4 6.65-11.51v-.02zM78.63 26.25L67.45 32.7l2.4 4.16 11.18-6.46c2.69-1.55.28-5.69-2.4-4.15zM52.45 11.07v12.81h-4.8v-12.8c0-3.1 4.8-3.1 4.8 0zM30.74 16.85c-1.54-2.68 2.6-5.09 4.15-2.41l6.66 11.54-4.16 2.4-6.65-11.51v-.02zM21.37 26.25l11.17 6.45-2.4 4.16-11.18-6.46c-2.69-1.55-.28-5.69 2.41-4.15z"/></g></svg>