<svg xmlns="http://www.w3.org/2000/svg" version="1.1" width="72px" height="72px"
     viewBox="0 0 100 100">
	<g fill="white">
		<path d="M59.21,31.66c0,4.32-2.57,9.5-5.75,12.15c0.61,2.34,3.81,3.2,10.3,4.97c0.42,0.12,0.85,0.24,1.3,0.36      c8.2,2.24,10.17,7.97,10.15,11.7H23.59c-0.01-2.04,0.58-4.689,2.46-7.03c1.56-1.93,3.99-3.66,7.69-4.669      c0.31-0.09,0.62-0.17,0.91-0.25c4.68-1.29,7.7-2.08,9.33-3.24c0.65-0.47,1.08-1,1.3-1.64h0.39c-0.11-0.09-0.21-0.17-0.31-0.27      C42.32,40.99,40,35.65,40,31.33c0-6.11,5-11.06,9.73-11.06S59.21,25.55,59.21,31.66z"/>
		<path d="M91.21,14.81v51.26c0,2.14-1.73,3.87-3.87,3.87H61.99v6.529c0,0.431-0.07,0.83-0.19,1.21h11.56      c1.47,0,2.66,1.19,2.66,2.66S74.83,83,73.36,83H25.48c-1.48,0-2.66-1.19-2.66-2.66c0-0.729,0.3-1.399,0.78-1.89      c0.47-0.47,1.14-0.771,1.88-0.771h11.55c-0.12-0.38-0.19-0.779-0.19-1.21V69.94H11.49c-2.14,0-3.87-1.73-3.87-3.87V14.81      c0-2.14,1.73-3.87,3.87-3.87h75.85C89.48,10.94,91.21,12.67,91.21,14.81z M86.5,51.42c0-0.27-0.01-0.56-0.05-0.86V15.77H12.38      v35.65v12.72h74.07V51.42H86.5z"/>
		<path d="M86.45,50.56c0.04,0.3,0.05,0.59,0.05,0.86h-0.05V50.56z"/>
		<path d="M61.74,44.43c4.41-1.2,6.54-1.69,6.93-3.18c-1.9-1.58-3.43-4.67-3.43-7.25c0-3.65,2.83-6.8,5.66-6.8      c2.82,0,5.81,2.96,5.81,6.6c0,2.58-1.39,5.77-3.21,7.41c-0.05,0.06-0.11,0.11-0.18,0.16h0.23c0.48,1.39,2.61,1.88,6.89,3.06      c4.3,1.19,5.74,3.96,6.01,6.13v0.86H74.46c-1.23-1.53-3.16-2.9-6.09-3.7c-1.55-0.43-2.89-0.79-4.02-1.12      c-1.9-0.55-3.24-1.04-4.1-1.65C60.7,44.75,61.2,44.58,61.74,44.43z"/>
		<path d="M45.67,44.01h-0.39c0.03-0.09,0.06-0.17,0.08-0.27C45.46,43.84,45.56,43.92,45.67,44.01z"/>
		<path d="M27.49,41.13H27.2c0.02-0.06,0.04-0.13,0.06-0.2C27.33,41,27.41,41.07,27.49,41.13z"/>
		<path d="M27.49,41.13c-0.08-0.06-0.16-0.13-0.23-0.2c-0.02,0.07-0.04,0.14-0.06,0.2H27.49z M30.34,41.25      c0.39,1.49,2.52,1.98,6.92,3.18c0.54,0.15,1.04,0.32,1.49,0.52c-0.94,0.67-2.47,1.19-4.68,1.82c-1,0.29-2.14,0.59-3.43,0.95      c-2.94,0.8-4.87,2.17-6.1,3.7H12.5c-0.01-2.23,1.17-5.64,6.06-6.99c4.29-1.18,6.41-1.67,6.89-3.06h0.23      c-0.06-0.05-0.12-0.1-0.18-0.16c-1.82-1.64-3.2-4.83-3.2-7.41c0-3.64,2.98-6.6,5.81-6.6c2.82,0,5.66,3.15,5.66,6.8      C33.77,36.58,32.23,39.67,30.34,41.25z"/>
	</g>
</svg>