<svg xmlns="http://www.w3.org/2000/svg" version="1.1" width="72px" height="72px" viewBox="5 10 90 90">
	<g fill="white">
		<path d="M50,19.9c-6.8,0-12.4,5.6-12.4,12.5c0,6.9,5.5,12.5,12.4,12.5c6.8,0,12.4-5.6,12.4-12.5C62.4,25.5,56.8,19.9,50,19.9z"/>
		<path d="M88.3,78.1L70.1,52.8c0,0-2.4-4.6-8-4.8v0H38v0c-5.7,0.2-8,4.8-8,4.8L11.7,78.1c-0.8,1.1-1.2,2.5-1.2,4   c0,3.9,3.2,7.1,7.1,7.1h9.9l0,1.8c0,1,0.8,1.8,1.8,1.8h41.7c1,0,1.8-0.8,1.8-1.8l0-1.8h9.9c3.9,0,7.1-3.2,7.1-7.1   C89.5,80.6,89.1,79.2,88.3,78.1z M72.6,89L72.6,89H27.4V61.8c0-1.2,1-2.1,2.1-2.1l20.5,0l20.5,0c1.2,0,2.1,1,2.1,2.1V89z"/>
		<path d="M50,70c-2.6,0-4.8,2.1-4.8,4.8c0,2.7,2.1,4.8,4.8,4.8c2.6,0,4.8-2.2,4.8-4.8C54.8,72.2,52.6,70,50,70z"/>
	</g>
</svg>