<svg xmlns="http://www.w3.org/2000/svg" id="Mycourses-Login" width="300" height="70" version="1.1" viewBox="0 0 300 70"><rect width="100%" height="100%" fill="#000"/><path id="triangle" d="m 30,0 v 30 H 0" style="fill:#f36e21"/><g id="MYCOURSES" transform="matrix(1,0,0,1,-353,-25)" style="fill:#fff"><path id="M" d="m 425.43687,27.084167 h -11.12 l -4.56,17.28 h -0.16 l -4.6,-17.28 h -11.15999 v 28.56 h 6.91999 v -20 h 0.16 l 5.96,20 h 5.36 l 5.96,-20 h 0.16 v 20 h 7.08 z"/><path id="Y" d="m 455.66,27.084167 h -8.16 l -5.76,11.32 -5.76,-11.32 h -8.32 l 10.2,17.92 v 10.64 h 7.6 v -10.64 z"/><path id="C" d="m 475,45 c -0.64,3.36 -2.72,5.56 -5.96,5.56 -3.36,0 -6.56,-2.32 -6.56,-8.92 0,-6.56 3.2,-8.88 6.56,-8.88 3,0 5,1.92 5.8,4.4 l 7.56,-0.92 c -1.2,-4.96 -6.04,-9.48 -13.36,-9.48 -8.36,0 -14.32,5.4 -14.32,14.88 0,9.52 5.96,14.92 14.32,14.92 7.64,0 12.6,-4.84 13.64,-10.88 z"/><path id="O" d="m 500,27 c -8.44,0 -14.56,5.4 -14.56,14.92 0,9.56 6.12,14.92 14.56,14.92 8.4,0 14.52,-5.36 14.52,-14.92 0,-9.52 -6.12,-14.92 -14.52,-14.92 z m 0,23.84 c -3.64,0 -6.8,-2.32 -6.8,-8.92 0,-6.56 3.16,-8.88 6.8,-8.88 3.64,0 6.8,2.32 6.8,8.88 0,6.6 -3.16,8.92 -6.8,8.92 Z"/><path id="U" d="m 542.135,27.084167 h -7.6 v 17.36 c 0,3.96 -1.84,5.84 -5.24,5.84 -3.44,0 -5.28,-1.88 -5.28,-5.84 v -17.36 h -7.6 v 18.04 c 0,7.64 5.56,11.16 12.88,11.16 7.28,0 12.84,-3.52 12.84,-11.16 z"/><path id="R" d="m 563.69875,55.644167 h 8.84 l -6.4,-10.52 c 3.6,-1.36 5.56,-4.36 5.56,-8.56 0,-5.96 -4,-9.48 -10.8,-9.48 h -14.64 v 28.56 h 7.6 v -9.64 h 4.48 z m -9.84,-15.44 v -7.28 h 5.76 c 2.88,0 4.36,1.4 4.36,3.64 0,2.24 -1.48,3.64 -4.36,3.64 z"/><path id="S" d="m 598.0925,35.284167 c -0.92,-5.76 -5.52,-8.84 -11.96,-8.84 -6.68,0 -11.84,2.96 -11.84,8.76 0,5.92 4.52,7.2 8.64,8.32 l 4.12,1.08 c 2.76,0.72 4.2,1.24 4.2,3.16 0,1.92 -1.96,2.96 -4.52,2.96 -3.04,0 -5.52,-1.4 -5.8,-4.72 l -7.48,0.76 c 0.6,6.28 6.16,9.52 13.2,9.52 6.68,0 12.36,-2.56 12.36,-8.8 0,-6.76 -4.88,-7.96 -9.36,-9.12 l -4.48,-1.12 c -2,-0.48 -3.44,-1 -3.44,-2.56 0,-1.56 1.6,-2.76 4.12,-2.76 3,0 4.64,1.44 4.96,3.84 z"/><path id="E" d="m 609.83625,38.284167 v -5.36 h 14.16 v -5.84 h -21.8 v 28.56 h 21.8 v -5.96 h -14.16 v -5.84 h 13.4 v -5.56 z"/><path id="S" d="m 650.67062,35.284167 c -0.91999,-5.76 -5.52,-8.84 -11.95999,-8.84 -6.68001,0 -11.84,2.96 -11.84,8.76 0,5.92 4.51999,7.2 8.63999,8.32 l 4.12,1.08 c 2.76,0.72 4.20001,1.24 4.20001,3.16 0,1.92 -1.96,2.96 -4.52001,2.96 0,0 -5.52,-1.4 -5.8,-4.72 l -7.48,0.76 c 0.6,6.28 6.16,9.52 13.20001,9.52 6.67999,0 12.36,-2.56 12.36,-8.8 0,-6.76 -4.88,-7.96 -9.36,-9.12 l -4.48,-1.12 c -2,-0.48 -3.44001,-1 -3.44001,-2.56 0,-1.56 1.6,-2.76 4.12,-2.76 3,0 4.64,1.44 4.96,3.84 z"/></g><g id="LOGIN" transform="matrix(1,0,0,1,-484,-118)" style="fill:none;stroke:#fff"><path id="L" d="m 655.78855,187.07385 h 22.08 v -6.24 h -14.44 v -22.32 h -7.64 z"/><path id="O" d="m 694.14766,157.87385 c -8.44,0 -14.56,5.4 -14.56,14.92 0,9.56 6.12,14.92 14.56,14.92 8.4,0 14.52,-5.36 14.52,-14.92 0,-9.52 -6.12,-14.92 -14.52,-14.92 z m 0,23.84 c -3.64,0 -6.8,-2.32 -6.8,-8.92 0,-6.56 3.16,-8.88 6.8,-8.88 3.64,0 6.8,2.32 6.8,8.88 0,6.6 -3.16,8.92 -6.8,8.92 z"/><path id="G" d="m 739.47016,187.07385 v -15.48 h -13.36 v 5.32 h 6.2 c -1.2,3.36 -3.72,4.8 -6.68,4.8 -3.64,0 -6.72,-2.36 -6.72,-8.92 0,-6.52 3.08,-8.88 6.72,-8.88 3.08,0 4.92,1.68 5.84,4.04 l 7.68,-0.92 c -1.64,-5.24 -6.44,-9.12 -13.52,-9.12 -8.36,0 -14.48,5.44 -14.48,14.88 0,9.48 6.12,14.96 14.48,14.96 3.64,0 6.68,-1.32 8.84,-3.92 v 3.28 z"/><path id="I" d="m 743.85489,187.07385 h 7.6 v -28.56 h -7.6 z"/><path id="N" d="m 782.26838,187.07385 v -28.56 h -6.92 v 18.2 h -0.16 l -10.32,-18.2 h -8.72 v 28.56 h 6.92 v -18.6 h 0.16 l 10.52,18.6 z"/></g></svg>